<mxfile host="Electron" agent="Mozilla/5.0 (Windows NT 10.0; Win64; x64) AppleWebKit/537.36 (KHTML, like Gecko) draw.io/28.0.6 Chrome/138.0.7204.100 Electron/37.2.3 Safari/537.36" version="28.0.6">
  <diagram name="Page-1" id="w0AOGBcYfU0c_Te8I6_I">
    <mxGraphModel dx="1426" dy="889" grid="1" gridSize="10" guides="1" tooltips="1" connect="1" arrows="1" fold="1" page="1" pageScale="1" pageWidth="850" pageHeight="1100" math="0" shadow="0">
      <root>
        <mxCell id="0" />
        <mxCell id="1" parent="0" />
        <mxCell id="qDtnTpvqVdNM_0jnaKKl-9" value="" style="rounded=1;whiteSpace=wrap;html=1;rotation=-90;" parent="1" vertex="1">
          <mxGeometry x="146.06" y="291.82" width="471.5" height="752.12" as="geometry" />
        </mxCell>
        <mxCell id="qDtnTpvqVdNM_0jnaKKl-1" value="" style="sketch=0;html=1;aspect=fixed;strokeColor=none;shadow=0;fillColor=#3B8DF1;verticalAlign=top;labelPosition=center;verticalLabelPosition=bottom;shape=mxgraph.gcp2.cloud" parent="1" vertex="1">
          <mxGeometry x="350" y="140" width="100" height="69" as="geometry" />
        </mxCell>
        <mxCell id="qDtnTpvqVdNM_0jnaKKl-3" value="Cloud Firewall&#xa;Rules" style="sketch=0;html=1;verticalAlign=top;labelPosition=center;verticalLabelPosition=bottom;align=center;spacingTop=-6;fontSize=11;fontStyle=1;fontColor=#999999;shape=image;aspect=fixed;imageAspect=0;image=data:image/svg+xml,PHN2ZyB4bWxucz0iaHR0cDovL3d3dy53My5vcmcvMjAwMC9zdmciIHhtbG5zOnY9Imh0dHBzOi8vdmVjdGEuaW8vbmFubyIgd2lkdGg9IjIwIiBoZWlnaHQ9IjIwIiBmaWxsPSIjNDI4NWY0IiB2aWV3Qm94PSIwIDAgMjAgMjAiPiYjeGE7CTxzdHlsZSB0eXBlPSJ0ZXh0L2NzcyI+JiN4YTsJLnN0MHtmaWxsOiM0Mjg1ZjQ7fSYjeGE7CTwvc3R5bGU+JiN4YTsJPHBhdGggY2xhc3M9InN0MCIgZD0iTTAgMGg4Ljg5djIuMjJIMHptMCAxNy43OGg4Ljg5VjIwSDB6bTAtOC44OWg4Ljg5djIuMjJIMHpNMTEuMTEgMEgyMHYyLjIyaC04Ljg5em0wIDE3Ljc4SDIwVjIwaC04Ljg5em0wLTguODlIMjB2Mi4yMmgtOC44OXpNNS41NSA0LjQ0aDguODl2Mi4yMkg1LjU1em0wIDguODloOC44OXYyLjIySDUuNTV6TTAgNC40NGgzLjMzdjIuMjJIMHptMCA4Ljg5aDMuMzN2Mi4yMkgwem0xNi42Ny04Ljg5SDIwdjIuMjJoLTMuMzN6bTAgOC44OUgyMHYyLjIyaC0zLjMzeiIvPiYjeGE7PC9zdmc+;" parent="1" vertex="1">
          <mxGeometry x="330" y="620" width="42" height="42" as="geometry" />
        </mxCell>
        <mxCell id="qDtnTpvqVdNM_0jnaKKl-4" value="Cloud&#xa;NAT" style="sketch=0;html=1;verticalAlign=top;labelPosition=center;verticalLabelPosition=bottom;align=center;spacingTop=-6;fontSize=11;fontStyle=1;fontColor=#999999;shape=image;aspect=fixed;imageAspect=0;image=data:image/svg+xml,PHN2ZyB4bWxuczppbmtzY2FwZT0iaHR0cDovL3d3dy5pbmtzY2FwZS5vcmcvbmFtZXNwYWNlcy9pbmtzY2FwZSIgeG1sbnM6c29kaXBvZGk9Imh0dHA6Ly9zb2RpcG9kaS5zb3VyY2Vmb3JnZS5uZXQvRFREL3NvZGlwb2RpLTAuZHRkIiB4bWxucz0iaHR0cDovL3d3dy53My5vcmcvMjAwMC9zdmciIHhtbG5zOnN2Zz0iaHR0cDovL3d3dy53My5vcmcvMjAwMC9zdmciIHdpZHRoPSI5OS45OTczMDIyMDQ4OTI5NiIgaGVpZ2h0PSI5Ny44ODA4NTM5MDQyOTYzMyIgdmlld0JveD0iLTAuMDQ1Nzc2MzY3MTg3NSAxLjA4Nzc4ODU4MTg0ODE0NDUgOTkuOTk3Mjk5MTk0MzM1OTQgOTcuODgwODQ0MTE2MjEwOTQiIHZlcnNpb249IjEuMSIgaWQ9InN2ZzUiIGlua3NjYXBlOnZlcnNpb249IjEuMSAoYzY4ZTIyYzM4NywgMjAyMS0wNS0yMykiIHNvZGlwb2RpOmRvY25hbWU9ImNsb3VkX25hdC5zdmciPiYjeGE7ICA8c29kaXBvZGk6bmFtZWR2aWV3IGlkPSJuYW1lZHZpZXc3IiBwYWdlY29sb3I9IiNmZmZmZmYiIGJvcmRlcmNvbG9yPSIjNjY2NjY2IiBib3JkZXJvcGFjaXR5PSIxLjAiIGlua3NjYXBlOnBhZ2VzaGFkb3c9IjIiIGlua3NjYXBlOnBhZ2VvcGFjaXR5PSIwLjAiIGlua3NjYXBlOnBhZ2VjaGVja2VyYm9hcmQ9IjAiIGlua3NjYXBlOmRvY3VtZW50LXVuaXRzPSJtbSIgc2hvd2dyaWQ9ImZhbHNlIiBpbmtzY2FwZTp6b29tPSIwLjU3OTMzNzQ0IiBpbmtzY2FwZTpjeD0iLTQyLjI4OTY4OSIgaW5rc2NhcGU6Y3k9IjI1NC42MDExOSIgaW5rc2NhcGU6d2luZG93LXdpZHRoPSIxOTIwIiBpbmtzY2FwZTp3aW5kb3ctaGVpZ2h0PSIxMDE3IiBpbmtzY2FwZTp3aW5kb3cteD0iLTgiIGlua3NjYXBlOndpbmRvdy15PSItOCIgaW5rc2NhcGU6d2luZG93LW1heGltaXplZD0iMSIgaW5rc2NhcGU6Y3VycmVudC1sYXllcj0ibGF5ZXIxIiBmaXQtbWFyZ2luLXRvcD0iMCIgZml0LW1hcmdpbi1sZWZ0PSIwIiBmaXQtbWFyZ2luLXJpZ2h0PSIwIiBmaXQtbWFyZ2luLWJvdHRvbT0iMCIvPiYjeGE7ICA8ZGVmcyBpZD0iZGVmczIiLz4mI3hhOyAgPGcgaW5rc2NhcGU6bGFiZWw9IkxheWVyIDEiIGlua3NjYXBlOmdyb3VwbW9kZT0ibGF5ZXIiIGlkPSJsYXllcjEiIHRyYW5zZm9ybT0idHJhbnNsYXRlKDI1OC42MTk3NSwxNi42Njc3MTUpIj4mI3hhOyAgICA8cGF0aCBpZD0icGF0aDE3MzYyIiBzdHlsZT0ib3BhY2l0eToxO2ZpbGw6IzQyODVmNDtmaWxsLW9wYWNpdHk6MTtzdHJva2U6bm9uZTtzdHJva2Utd2lkdGg6MC45OTk5OTlweDtzdHJva2UtbGluZWNhcDpidXR0O3N0cm9rZS1saW5lam9pbjptaXRlcjtzdHJva2Utb3BhY2l0eToxIiBkPSJNIDE0MS40MTc5Nyw0LjExMTMyODEgMTI0LjQwMjM0LDI0LjM3NSBjIDU3Ljg5NTM3LDQ4LjYxNjQyNiA4My40MTQwNyw5Ni4wNjQ2NyA4My40MTQwNywxNjMuOTQzMzYgMCw3Mi4zMTIyOCAtMzYuMTA3MzEsMTI0LjgyOTc3IC04Mi4wMTk1MywxNjYuMDQ4ODMgbCAxNy42Nzk2OCwxOS42ODc1IGMgNDkuMjAyOTksLTQ0LjE3MzQyIDkwLjc5Njg4LC0xMDQuNDk4MzcgOTAuNzk2ODgsLTE4NS43MzYzMyAwLC03NC44ODE1MiAtMzEuMTU5NDEsLTEzMi4zOTkwMjIgLTkyLjg1NTQ3LC0xODQuMjA3MDMxOSB6IE0gOTYuNTU2NjQxLDc1Ljg4NDc2NiBWIDEwMi4zNDE4IEggMTY2LjQ4MzA1IEMgMTYyLjM5Mjc0LDk0LjU1NDQyIDE1OC40NTE0Myw4Ni44NDE1NDIgMTQ4LjAyMjMzLDc1Ljg4NDc2NiBaIE0gMzE3Ljc3OTMsMjAyLjMwNjY0IHYgMzIuMjkyOTcgbCA1OS45OTAyMywtNDUuNTE3NTggLTU5Ljk5MDIzLC00NS41MTc1OCB2IDMyLjI4NTE2IGggLTY0LjQ3NDYxIHYgMjYuNDU3MDMgeiBNIDUwLjA1ODU5NCwxNzUuODQ5NjEgdiAyNi40NTcwMyBIIDE4Ny4yODEyNSBjIDEuMTU3NDUsLTguMDQ3MzcgMS4yODIzMSwtMTYuNzgzMTUgMCwtMjYuNDU3MDMgeiBtIDQ3LjAzNzEwOSwxMDAuMDQ2ODcgdiAyNi40NTcwNCBoIDUwLjY4MjY3NyBjIDguMDE2NTcsLTguMDE0NjYgMTQuNDYxNjksLTE2LjgxNTA0IDE5LjIyMzU3LC0yNi40NTcwNCB6IiB0cmFuc2Zvcm09Im1hdHJpeCgwLjI2NDU4MzMzLDAsMCwwLjI2NDU4MzMzLC0yNTguNjE5NzUsLTE2LjY2NzcxNSkiIHNvZGlwb2RpOm5vZGV0eXBlcz0iY2NzY2NzY2NjY2NjY2NjY2NjY2NjY2NjY2NjY2NjIi8+JiN4YTsgICAgPHBhdGggaWQ9InBhdGgxNjI3MS03IiBzdHlsZT0iY29sb3I6IzAwMDAwMDtvcGFjaXR5OjE7ZmlsbDojNjY5ZGY2O3N0cm9rZS1saW5lam9pbjpyb3VuZDstaW5rc2NhcGUtc3Ryb2tlOm5vbmU7ZmlsbC1vcGFjaXR5OjEiIGQ9Im0gLTIzNy45NTQwOCw1MS45MDU2ODYgYyAtNC4zNDYzLDEwZS03IC03LjkyMzgyLDMuNTc3NTIxIC03LjkyMzgyLDcuOTIzODI4IDAsNC4zNDYzMDcgMy41Nzc1Miw3LjkyMzgyOCA3LjkyMzgyLDcuOTIzODI4IDQuMzQ2MzEsMCA3LjkyMzgzLC0zLjU3NzUyMSA3LjkyMzgzLC03LjkyMzgyOCAwLC00LjM0NjMwNyAtMy41Nzc1MiwtNy45MjM4MjcgLTcuOTIzODMsLTcuOTIzODI4IHogbSAwLDUgYyAxLjY0NDExLDAgMi45MjM4MywxLjI3OTcxOCAyLjkyMzgzLDIuOTIzODI4IDAsMS42NDQxMSAtMS4yNzk3MiwyLjkyMzgyOCAtMi45MjM4MywyLjkyMzgyOCAtMS42NDQxMSwwIC0yLjkyMzgyLC0xLjI3OTcxOCAtMi45MjM4MiwtMi45MjM4MjggMCwtMS42NDQxMSAxLjI3OTcxLC0yLjkyMzgyOCAyLjkyMzgyLC0yLjkyMzgyOCB6IG0gLTEyLjc4NzYxLC0zMS40ODg1OTMgYyAtNC4zNDYzLDEwZS03IC03LjkyMzgyLDMuNTc3NTIxIC03LjkyMzgyLDcuOTIzODI4IDAsNC4zNDYzMDcgMy41Nzc1Miw3LjkyMzgyOCA3LjkyMzgyLDcuOTIzODI4IDQuMzQ2MzEsMCA3LjkyMzgzLC0zLjU3NzUyMSA3LjkyMzgzLC03LjkyMzgyOCAwLC00LjM0NjMwNyAtMy41Nzc1MiwtNy45MjM4MjcgLTcuOTIzODMsLTcuOTIzODI4IHogbSAwLDUgYyAxLjY0NDExLDAgMi45MjM4MywxLjI3OTcxOCAyLjkyMzgzLDIuOTIzODI4IDAsMS42NDQxMSAtMS4yNzk3MiwyLjkyMzgyOCAtMi45MjM4MywyLjkyMzgyOCAtMS42NDQxMSwwIC0yLjkyMzgyLC0xLjI3OTcxOCAtMi45MjM4MiwtMi45MjM4MjggMCwtMS42NDQxMSAxLjI3OTcxLC0yLjkyMzgyOCAyLjkyMzgyLC0yLjkyMzgyOCB6IG0gMTIuNjE2NTIsLTMxLjQzMTQ5MjkgYyAtNC4zNDYzLDZlLTcgLTcuOTIzODIsMy41Nzc1MjA4IC03LjkyMzgyLDcuOTIzODI4MSAwLDQuMzQ2MzA2OCAzLjU3NzUyLDcuOTIzODI3OCA3LjkyMzgyLDcuOTIzODI3OCA0LjM0NjMxLDAgNy45MjM4MywtMy41Nzc1MjEgNy45MjM4MywtNy45MjM4Mjc4IDAsLTQuMzQ2MzA3MyAtMy41Nzc1MiwtNy45MjM4Mjc1IC03LjkyMzgzLC03LjkyMzgyODEgeiBtIDAsNSBjIDEuNjQ0MTEsMmUtNyAyLjkyMzgzLDEuMjc5NzE4NCAyLjkyMzgzLDIuOTIzODI4MSAwLDEuNjQ0MTA5NiAtMS4yNzk3MiwyLjkyMzgyNzkgLTIuOTIzODMsMi45MjM4Mjc5IC0xLjY0NDExLDAgLTIuOTIzODIsLTEuMjc5NzE4MyAtMi45MjM4MiwtMi45MjM4Mjc5IDAsLTEuNjQ0MTA5NyAxLjI3OTcxLC0yLjkyMzgyNzkgMi45MjM4MiwtMi45MjM4MjgxIHoiLz4mI3hhOyAgPC9nPiYjeGE7PC9zdmc+;" parent="1" vertex="1">
          <mxGeometry x="720" y="620" width="42" height="42" as="geometry" />
        </mxCell>
        <mxCell id="qDtnTpvqVdNM_0jnaKKl-5" value="Cloud Load&#xa;Balancing" style="sketch=0;html=1;verticalAlign=top;labelPosition=center;verticalLabelPosition=bottom;align=center;spacingTop=-6;fontSize=11;fontStyle=1;fontColor=#999999;shape=image;aspect=fixed;imageAspect=0;image=data:image/svg+xml,PHN2ZyB4bWxucz0iaHR0cDovL3d3dy53My5vcmcvMjAwMC9zdmciIHhtbG5zOnY9Imh0dHBzOi8vdmVjdGEuaW8vbmFubyIgd2lkdGg9IjIwIiBoZWlnaHQ9IjIwIiB2aWV3Qm94PSIwIDAgMjAgMjAiPiYjeGE7CTxzdHlsZSB0eXBlPSJ0ZXh0L2NzcyI+JiN4YTsJLnN0MHtmaWxsOiM0Mjg1ZjQ7fSYjeGE7CS5zdDF7ZmlsbDojNjY5ZGY2O30mI3hhOwkuc3Qye2ZpbGw6I2FlY2JmYTt9JiN4YTsJPC9zdHlsZT4mI3hhOwk8cGF0aCBjbGFzcz0ic3QxIiBkPSJNMTYgMTBoMnY0aC0yem0tNyAwaDJ2NEg5em0tNyAwaDJ2NEgyeiIvPiYjeGE7CTxwYXRoIGNsYXNzPSJzdDAiIGQ9Ik05IDVoMnY0SDl6Ii8+JiN4YTsJPHBhdGggY2xhc3M9InN0MSIgZD0iTTIgOWgxNnYySDJ6Ii8+JiN4YTsJPHBhdGggY2xhc3M9InN0MiIgZD0iTTQgMGgxMnY1SDR6Ii8+JiN4YTsJPHBhdGggY2xhc3M9InN0MSIgZD0iTTEwIDBoNnY1aC02eiIvPiYjeGE7CTxwYXRoIGNsYXNzPSJzdDIiIGQ9Ik0xNCAxNGg2djZoLTZ6TTAgMTRoNnY2SDB6Ii8+JiN4YTsJPHBhdGggY2xhc3M9InN0MSIgZD0iTTMgMTRoM3Y2SDN6Ii8+JiN4YTsJPHBhdGggY2xhc3M9InN0MiIgZD0iTTcgMTRoNnY2SDd6Ii8+JiN4YTsJPHBhdGggY2xhc3M9InN0MSIgZD0iTTEwIDE0aDN2NmgtM3ptNyAwaDN2NmgtM3oiLz4mI3hhOzwvc3ZnPg==;" parent="1" vertex="1">
          <mxGeometry x="518" y="620" width="42" height="42" as="geometry" />
        </mxCell>
        <mxCell id="qDtnTpvqVdNM_0jnaKKl-6" value="Cloud&#xa;Router" style="sketch=0;html=1;verticalAlign=top;labelPosition=center;verticalLabelPosition=bottom;align=center;spacingTop=-6;fontSize=11;fontStyle=1;fontColor=#999999;shape=image;aspect=fixed;imageAspect=0;image=data:image/svg+xml,PHN2ZyB4bWxucz0iaHR0cDovL3d3dy53My5vcmcvMjAwMC9zdmciIHhtbG5zOnY9Imh0dHBzOi8vdmVjdGEuaW8vbmFubyIgd2lkdGg9IjIwIiBoZWlnaHQ9IjIwIiB2aWV3Qm94PSIwIDAgMjAgMjAiPiYjeGE7CTxzdHlsZSB0eXBlPSJ0ZXh0L2NzcyI+JiN4YTsJLnN0MHtmaWxsOiM0Mjg1ZjQ7fSYjeGE7CTwvc3R5bGU+JiN4YTsJPHBhdGggY2xhc3M9InN0MCIgZD0iTTE3IDEydjNsLTUtNSA1LTV2M2gzdjR6TTMgOEgwdjRoM3YzbDUtNS01LTV6bTkgN3YtM0g4djNINWw1IDUgNS01em0wLTEwdjNIOFY1SDVsNS01IDUgNXoiLz4mI3hhOzwvc3ZnPg==;" parent="1" vertex="1">
          <mxGeometry x="220" y="620" width="42" height="42" as="geometry" />
        </mxCell>
        <mxCell id="qDtnTpvqVdNM_0jnaKKl-7" value="Virtual&#xa;Private Cloud" style="sketch=0;html=1;verticalAlign=top;labelPosition=center;verticalLabelPosition=bottom;align=center;spacingTop=-6;fontSize=11;fontStyle=1;fontColor=#999999;shape=image;aspect=fixed;imageAspect=0;image=data:image/svg+xml,PHN2ZyB4bWxucz0iaHR0cDovL3d3dy53My5vcmcvMjAwMC9zdmciIHhtbG5zOnY9Imh0dHBzOi8vdmVjdGEuaW8vbmFubyIgd2lkdGg9IjIwIiBoZWlnaHQ9IjIwIiB2aWV3Qm94PSIwIDAgMjAgMjAiPiYjeGE7CTxzdHlsZSB0eXBlPSJ0ZXh0L2NzcyI+JiN4YTsJLnN0MHtmaWxsOiM0Mjg1ZjQ7fSYjeGE7CS5zdDF7ZmlsbDojNjY5ZGY2O30mI3hhOwkuc3Qye2ZpbGw6I2FlY2JmYTt9JiN4YTsJPC9zdHlsZT4mI3hhOwk8cGF0aCBjbGFzcz0ic3QyIiBkPSJNMTQgMGg2djZoLTZ6Ii8+JiN4YTsJPHBhdGggY2xhc3M9InN0MSIgZD0iTTE3IDBoM3Y2aC0zeiIvPiYjeGE7CTxwYXRoIGNsYXNzPSJzdDIiIGQ9Ik0xNCAxNGg2djZoLTZ6Ii8+JiN4YTsJPHBhdGggY2xhc3M9InN0MSIgZD0iTTE3IDE0aDN2NmgtM3oiLz4mI3hhOwk8cGF0aCBjbGFzcz0ic3QyIiBkPSJNMCAwaDZ2NkgweiIvPiYjeGE7CTxwYXRoIGNsYXNzPSJzdDEiIGQ9Ik0zIDBoM3Y2SDN6Ii8+JiN4YTsJPHBhdGggY2xhc3M9InN0MiIgZD0iTTAgMTRoNnY2SDB6Ii8+JiN4YTsJPGcgY2xhc3M9InN0MSI+JiN4YTsJCTxwYXRoIGQ9Ik0zIDE0aDN2Nkgzek02IDJoOHYySDZ6Ii8+JiN4YTsJCTxwYXRoIGQ9Ik02IDE2aDh2Mkg2ek0xNiA2aDJ2OGgtMnpNMiA2aDJ2OEgyeiIvPiYjeGE7CTwvZz4mI3hhOwk8cGF0aCBjbGFzcz0ic3QwIiBkPSJNMiA2aDJ2Mkgyem0xNCAwaDJ2MmgtMnpNNiAyaDJ2Mkg2em0wIDE0aDJ2Mkg2eiIvPiYjeGE7PC9zdmc+;" parent="1" vertex="1">
          <mxGeometry x="425" y="430" width="42" height="42" as="geometry" />
        </mxCell>
        <mxCell id="qDtnTpvqVdNM_0jnaKKl-12" value="Compute&#xa;Engine" style="sketch=0;html=1;verticalAlign=top;labelPosition=center;verticalLabelPosition=bottom;align=center;spacingTop=-6;fontSize=11;fontStyle=1;fontColor=#999999;shape=image;aspect=fixed;imageAspect=0;image=data:image/svg+xml,PHN2ZyB4bWxucz0iaHR0cDovL3d3dy53My5vcmcvMjAwMC9zdmciIHhtbG5zOnY9Imh0dHBzOi8vdmVjdGEuaW8vbmFubyIgd2lkdGg9IjIwIiBoZWlnaHQ9IjIwIiB2aWV3Qm94PSIwIDAgMjAgMjAiPiYjeGE7CTxzdHlsZSB0eXBlPSJ0ZXh0L2NzcyI+JiN4YTsJLnN0MHtmaWxsOiM0Mjg1ZjQ7fSYjeGE7CS5zdDF7ZmlsbDojNjY5ZGY2O30mI3hhOwkuc3Qye2ZpbGw6I2FlY2JmYTt9JiN4YTsJPC9zdHlsZT4mI3hhOwk8cGF0aCBjbGFzcz0ic3QyIiBkPSJNNyA3aDZ2Nkg3eiIvPiYjeGE7CTxwYXRoIGNsYXNzPSJzdDEiIGQ9Ik05IDBoMnY0SDl6TTUgMGgydjRINXptOCAwaDJ2NGgtMnoiLz4mI3hhOwk8cGF0aCBjbGFzcz0ic3QwIiBkPSJNOSAxNmgydjRIOXptLTQgMGgydjRINXptOCAwaDJ2NGgtMnptMy01VjloNHYyem0wIDR2LTJoNHYyem0wLThWNWg0djJ6Ii8+JiN4YTsJPHBhdGggY2xhc3M9InN0MSIgZD0iTTAgMTFWOWg0djJ6bTAgNHYtMmg0djJ6bTAtOFY1aDR2MnoiLz4mI3hhOwk8cGF0aCBjbGFzcz0ic3QyIiBkPSJNMyAzdjE0aDE0VjN6bTEyIDEySDVWNWgxMHoiLz4mI3hhOwk8cGF0aCBjbGFzcz0ic3QxIiBkPSJNMTAgMTBsLTMgM2g2eiIvPiYjeGE7CTxwYXRoIGNsYXNzPSJzdDAiIGQ9Ik0xMyA3bC0zIDMgMyAzeiIvPiYjeGE7PC9zdmc+;" parent="1" vertex="1">
          <mxGeometry x="62.5" y="820" width="41" height="41" as="geometry" />
        </mxCell>
        <mxCell id="qDtnTpvqVdNM_0jnaKKl-13" value="Compute&#xa;Engine" style="sketch=0;html=1;verticalAlign=top;labelPosition=center;verticalLabelPosition=bottom;align=center;spacingTop=-6;fontSize=11;fontStyle=1;fontColor=#999999;shape=image;aspect=fixed;imageAspect=0;image=data:image/svg+xml,PHN2ZyB4bWxucz0iaHR0cDovL3d3dy53My5vcmcvMjAwMC9zdmciIHhtbG5zOnY9Imh0dHBzOi8vdmVjdGEuaW8vbmFubyIgd2lkdGg9IjIwIiBoZWlnaHQ9IjIwIiB2aWV3Qm94PSIwIDAgMjAgMjAiPiYjeGE7CTxzdHlsZSB0eXBlPSJ0ZXh0L2NzcyI+JiN4YTsJLnN0MHtmaWxsOiM0Mjg1ZjQ7fSYjeGE7CS5zdDF7ZmlsbDojNjY5ZGY2O30mI3hhOwkuc3Qye2ZpbGw6I2FlY2JmYTt9JiN4YTsJPC9zdHlsZT4mI3hhOwk8cGF0aCBjbGFzcz0ic3QyIiBkPSJNNyA3aDZ2Nkg3eiIvPiYjeGE7CTxwYXRoIGNsYXNzPSJzdDEiIGQ9Ik05IDBoMnY0SDl6TTUgMGgydjRINXptOCAwaDJ2NGgtMnoiLz4mI3hhOwk8cGF0aCBjbGFzcz0ic3QwIiBkPSJNOSAxNmgydjRIOXptLTQgMGgydjRINXptOCAwaDJ2NGgtMnptMy01VjloNHYyem0wIDR2LTJoNHYyem0wLThWNWg0djJ6Ii8+JiN4YTsJPHBhdGggY2xhc3M9InN0MSIgZD0iTTAgMTFWOWg0djJ6bTAgNHYtMmg0djJ6bTAtOFY1aDR2MnoiLz4mI3hhOwk8cGF0aCBjbGFzcz0ic3QyIiBkPSJNMyAzdjE0aDE0VjN6bTEyIDEySDVWNWgxMHoiLz4mI3hhOwk8cGF0aCBjbGFzcz0ic3QxIiBkPSJNMTAgMTBsLTMgM2g2eiIvPiYjeGE7CTxwYXRoIGNsYXNzPSJzdDAiIGQ9Ik0xMyA3bC0zIDMgMyAzeiIvPiYjeGE7PC9zdmc+;" parent="1" vertex="1">
          <mxGeometry x="61.5" y="700" width="42" height="42" as="geometry" />
        </mxCell>
        <mxCell id="qDtnTpvqVdNM_0jnaKKl-14" value="Compute&#xa;Engine" style="sketch=0;html=1;verticalAlign=top;labelPosition=center;verticalLabelPosition=bottom;align=center;spacingTop=-6;fontSize=11;fontStyle=1;fontColor=#999999;shape=image;aspect=fixed;imageAspect=0;image=data:image/svg+xml,PHN2ZyB4bWxucz0iaHR0cDovL3d3dy53My5vcmcvMjAwMC9zdmciIHhtbG5zOnY9Imh0dHBzOi8vdmVjdGEuaW8vbmFubyIgd2lkdGg9IjIwIiBoZWlnaHQ9IjIwIiB2aWV3Qm94PSIwIDAgMjAgMjAiPiYjeGE7CTxzdHlsZSB0eXBlPSJ0ZXh0L2NzcyI+JiN4YTsJLnN0MHtmaWxsOiM0Mjg1ZjQ7fSYjeGE7CS5zdDF7ZmlsbDojNjY5ZGY2O30mI3hhOwkuc3Qye2ZpbGw6I2FlY2JmYTt9JiN4YTsJPC9zdHlsZT4mI3hhOwk8cGF0aCBjbGFzcz0ic3QyIiBkPSJNNyA3aDZ2Nkg3eiIvPiYjeGE7CTxwYXRoIGNsYXNzPSJzdDEiIGQ9Ik05IDBoMnY0SDl6TTUgMGgydjRINXptOCAwaDJ2NGgtMnoiLz4mI3hhOwk8cGF0aCBjbGFzcz0ic3QwIiBkPSJNOSAxNmgydjRIOXptLTQgMGgydjRINXptOCAwaDJ2NGgtMnptMy01VjloNHYyem0wIDR2LTJoNHYyem0wLThWNWg0djJ6Ii8+JiN4YTsJPHBhdGggY2xhc3M9InN0MSIgZD0iTTAgMTFWOWg0djJ6bTAgNHYtMmg0djJ6bTAtOFY1aDR2MnoiLz4mI3hhOwk8cGF0aCBjbGFzcz0ic3QyIiBkPSJNMyAzdjE0aDE0VjN6bTEyIDEySDVWNWgxMHoiLz4mI3hhOwk8cGF0aCBjbGFzcz0ic3QxIiBkPSJNMTAgMTBsLTMgM2g2eiIvPiYjeGE7CTxwYXRoIGNsYXNzPSJzdDAiIGQ9Ik0xMyA3bC0zIDMgMyAzeiIvPiYjeGE7PC9zdmc+;" parent="1" vertex="1">
          <mxGeometry x="61.5" y="578" width="42" height="42" as="geometry" />
        </mxCell>
        <mxCell id="DQJhr5tr639LsQyuPQP4-3" value="Compute&#xa;Engine" style="sketch=0;html=1;verticalAlign=top;labelPosition=center;verticalLabelPosition=bottom;align=center;spacingTop=-6;fontSize=11;fontStyle=1;fontColor=#999999;shape=image;aspect=fixed;imageAspect=0;image=data:image/svg+xml,PHN2ZyB4bWxucz0iaHR0cDovL3d3dy53My5vcmcvMjAwMC9zdmciIHhtbG5zOnY9Imh0dHBzOi8vdmVjdGEuaW8vbmFubyIgd2lkdGg9IjIwIiBoZWlnaHQ9IjIwIiB2aWV3Qm94PSIwIDAgMjAgMjAiPiYjeGE7CTxzdHlsZSB0eXBlPSJ0ZXh0L2NzcyI+JiN4YTsJLnN0MHtmaWxsOiM0Mjg1ZjQ7fSYjeGE7CS5zdDF7ZmlsbDojNjY5ZGY2O30mI3hhOwkuc3Qye2ZpbGw6I2FlY2JmYTt9JiN4YTsJPC9zdHlsZT4mI3hhOwk8cGF0aCBjbGFzcz0ic3QyIiBkPSJNNyA3aDZ2Nkg3eiIvPiYjeGE7CTxwYXRoIGNsYXNzPSJzdDEiIGQ9Ik05IDBoMnY0SDl6TTUgMGgydjRINXptOCAwaDJ2NGgtMnoiLz4mI3hhOwk8cGF0aCBjbGFzcz0ic3QwIiBkPSJNOSAxNmgydjRIOXptLTQgMGgydjRINXptOCAwaDJ2NGgtMnptMy01VjloNHYyem0wIDR2LTJoNHYyem0wLThWNWg0djJ6Ii8+JiN4YTsJPHBhdGggY2xhc3M9InN0MSIgZD0iTTAgMTFWOWg0djJ6bTAgNHYtMmg0djJ6bTAtOFY1aDR2MnoiLz4mI3hhOwk8cGF0aCBjbGFzcz0ic3QyIiBkPSJNMyAzdjE0aDE0VjN6bTEyIDEySDVWNWgxMHoiLz4mI3hhOwk8cGF0aCBjbGFzcz0ic3QxIiBkPSJNMTAgMTBsLTMgM2g2eiIvPiYjeGE7CTxwYXRoIGNsYXNzPSJzdDAiIGQ9Ik0xMyA3bC0zIDMgMyAzeiIvPiYjeGE7PC9zdmc+;" vertex="1" parent="1">
          <mxGeometry x="62.5" y="495.75" width="42" height="42" as="geometry" />
        </mxCell>
        <mxCell id="DQJhr5tr639LsQyuPQP4-5" value="" style="endArrow=classic;startArrow=classic;html=1;rounded=0;exitX=1;exitY=0.5;exitDx=0;exitDy=0;entryX=0;entryY=0.5;entryDx=0;entryDy=0;" edge="1" parent="1" source="qDtnTpvqVdNM_0jnaKKl-5" target="qDtnTpvqVdNM_0jnaKKl-4">
          <mxGeometry width="50" height="50" relative="1" as="geometry">
            <mxPoint x="460" y="630" as="sourcePoint" />
            <mxPoint x="510" y="580" as="targetPoint" />
          </mxGeometry>
        </mxCell>
        <mxCell id="DQJhr5tr639LsQyuPQP4-6" value="" style="endArrow=classic;startArrow=classic;html=1;rounded=0;exitX=1;exitY=0.5;exitDx=0;exitDy=0;entryX=0;entryY=0.5;entryDx=0;entryDy=0;" edge="1" parent="1" source="qDtnTpvqVdNM_0jnaKKl-3" target="qDtnTpvqVdNM_0jnaKKl-5">
          <mxGeometry width="50" height="50" relative="1" as="geometry">
            <mxPoint x="375" y="570" as="sourcePoint" />
            <mxPoint x="425" y="520" as="targetPoint" />
          </mxGeometry>
        </mxCell>
        <mxCell id="DQJhr5tr639LsQyuPQP4-7" value="" style="endArrow=classic;startArrow=classic;html=1;rounded=0;exitX=1;exitY=0.5;exitDx=0;exitDy=0;entryX=0;entryY=0.5;entryDx=0;entryDy=0;" edge="1" parent="1" source="qDtnTpvqVdNM_0jnaKKl-6" target="qDtnTpvqVdNM_0jnaKKl-3">
          <mxGeometry width="50" height="50" relative="1" as="geometry">
            <mxPoint x="270" y="610" as="sourcePoint" />
            <mxPoint x="320" y="560" as="targetPoint" />
          </mxGeometry>
        </mxCell>
        <mxCell id="DQJhr5tr639LsQyuPQP4-8" value="" style="endArrow=classic;startArrow=classic;html=1;rounded=0;exitX=1;exitY=0.5;exitDx=0;exitDy=0;entryX=0.5;entryY=1;entryDx=0;entryDy=0;" edge="1" parent="1" source="qDtnTpvqVdNM_0jnaKKl-12" target="qDtnTpvqVdNM_0jnaKKl-6">
          <mxGeometry width="50" height="50" relative="1" as="geometry">
            <mxPoint x="150" y="850" as="sourcePoint" />
            <mxPoint x="200" y="800" as="targetPoint" />
            <Array as="points">
              <mxPoint x="160" y="840" />
              <mxPoint x="240" y="840" />
            </Array>
          </mxGeometry>
        </mxCell>
        <mxCell id="DQJhr5tr639LsQyuPQP4-9" value="" style="endArrow=classic;startArrow=classic;html=1;rounded=0;exitX=1;exitY=0.5;exitDx=0;exitDy=0;entryX=0;entryY=0.5;entryDx=0;entryDy=0;" edge="1" parent="1" source="qDtnTpvqVdNM_0jnaKKl-13" target="qDtnTpvqVdNM_0jnaKKl-6">
          <mxGeometry width="50" height="50" relative="1" as="geometry">
            <mxPoint x="190" y="750" as="sourcePoint" />
            <mxPoint x="160" y="720" as="targetPoint" />
            <Array as="points">
              <mxPoint x="160" y="720" />
              <mxPoint x="160" y="640" />
            </Array>
          </mxGeometry>
        </mxCell>
        <mxCell id="DQJhr5tr639LsQyuPQP4-10" value="" style="endArrow=classic;startArrow=classic;html=1;rounded=0;exitX=1;exitY=0.5;exitDx=0;exitDy=0;" edge="1" parent="1" source="qDtnTpvqVdNM_0jnaKKl-14">
          <mxGeometry width="50" height="50" relative="1" as="geometry">
            <mxPoint x="130" y="575" as="sourcePoint" />
            <mxPoint x="160" y="640" as="targetPoint" />
            <Array as="points">
              <mxPoint x="160" y="600" />
            </Array>
          </mxGeometry>
        </mxCell>
        <mxCell id="DQJhr5tr639LsQyuPQP4-11" value="" style="endArrow=classic;startArrow=classic;html=1;rounded=0;entryX=1;entryY=0.5;entryDx=0;entryDy=0;exitX=0.5;exitY=0;exitDx=0;exitDy=0;" edge="1" parent="1" source="qDtnTpvqVdNM_0jnaKKl-6" target="DQJhr5tr639LsQyuPQP4-3">
          <mxGeometry width="50" height="50" relative="1" as="geometry">
            <mxPoint x="160" y="600" as="sourcePoint" />
            <mxPoint x="406" y="480" as="targetPoint" />
            <Array as="points">
              <mxPoint x="240" y="517" />
              <mxPoint x="160" y="517" />
            </Array>
          </mxGeometry>
        </mxCell>
        <mxCell id="DQJhr5tr639LsQyuPQP4-12" value="Rio" style="text;html=1;align=center;verticalAlign=middle;whiteSpace=wrap;rounded=0;" vertex="1" parent="1">
          <mxGeometry x="2.5" y="501.75" width="60" height="30" as="geometry" />
        </mxCell>
        <mxCell id="DQJhr5tr639LsQyuPQP4-13" value="Maryland" style="text;html=1;align=center;verticalAlign=middle;whiteSpace=wrap;rounded=0;" vertex="1" parent="1">
          <mxGeometry x="2.5" y="584" width="60" height="30" as="geometry" />
        </mxCell>
        <mxCell id="DQJhr5tr639LsQyuPQP4-14" value="Africa" style="text;html=1;align=center;verticalAlign=middle;whiteSpace=wrap;rounded=0;" vertex="1" parent="1">
          <mxGeometry y="706" width="60" height="30" as="geometry" />
        </mxCell>
        <mxCell id="DQJhr5tr639LsQyuPQP4-15" value="Santiago" style="text;html=1;align=center;verticalAlign=middle;whiteSpace=wrap;rounded=0;" vertex="1" parent="1">
          <mxGeometry x="2.5" y="825.5" width="60" height="30" as="geometry" />
        </mxCell>
        <mxCell id="DQJhr5tr639LsQyuPQP4-17" value="Partner&#xa;Interconnect" style="sketch=0;html=1;verticalAlign=top;labelPosition=center;verticalLabelPosition=bottom;align=center;spacingTop=-6;fontSize=11;fontStyle=1;fontColor=#999999;shape=image;aspect=fixed;imageAspect=0;image=data:image/svg+xml,PHN2ZyB4bWxucz0iaHR0cDovL3d3dy53My5vcmcvMjAwMC9zdmciIHhtbG5zOnY9Imh0dHBzOi8vdmVjdGEuaW8vbmFubyIgd2lkdGg9IjIwIiBoZWlnaHQ9IjEzLjUxOTk5OTUwNDA4OTM1NSIgdmlld0JveD0iMCAtMi4wNjA1NzM0NTA4OTU1MTA2ZS0xNSAyMCAxMy41MTk5OTk1MDQwODkzNTUiPiYjeGE7CTxzdHlsZSB0eXBlPSJ0ZXh0L2NzcyI+JiN4YTsJLnN0MHtmaWxsOiM0Mjg1ZjQ7fSYjeGE7CS5zdDF7ZmlsbDojNjY5ZGY2O30mI3hhOwkuc3Qye2ZpbGw6I2FlY2JmYTt9JiN4YTsJPC9zdHlsZT4mI3hhOwk8cGF0aCBjbGFzcz0ic3QwIiBkPSJNOS4xOSAxLjYyaDEuNjJ2MTAuMjdIOS4xOXoiLz4mI3hhOwk8cGF0aCBjbGFzcz0ic3QxIiBkPSJNMCA1Ljk1aDIuN3YxLjYySDB6Ii8+JiN4YTsJPHJlY3QgY2xhc3M9InN0MCIgeD0iMi40MyIgeT0iMy41MiIgd2lkdGg9IjQuODYiIGhlaWdodD0iNi40OSIgcng9Ii4yNCIvPiYjeGE7CTxnIGNsYXNzPSJzdDEiPiYjeGE7CQk8cGF0aCBkPSJNOS4xOSAxLjYyaDEuNjJ2MTAuMjdIOS4xOXptOC4xMSA0LjMzSDIwdjEuNjJoLTIuN3oiLz4mI3hhOwkJPHBhdGggZD0iTTQuNTkgMTEuOXYxLjMzYS4yOS4yOSAwIDAgMCAuMjkuMjloMTAuMjRhLjI5LjI5IDAgMCAwIC4yOS0uMjloMFYxMS45ek0xNS4xMiAwSDQuODhhLjI5LjI5IDAgMCAwLS4yOS4yOWgwdjEuMzNoMTAuODJWLjI5YS4yOS4yOSAwIDAgMC0uMjktLjI5eiIvPiYjeGE7CTwvZz4mI3hhOwk8cmVjdCBjbGFzcz0ic3QwIiB4PSIxMi43IiB5PSIzLjUyIiB3aWR0aD0iNC44NiIgaGVpZ2h0PSI2LjQ5IiByeD0iLjI0Ii8+JiN4YTs8L3N2Zz4=;" vertex="1" parent="1">
          <mxGeometry x="330" y="796.5" width="42" height="29" as="geometry" />
        </mxCell>
        <mxCell id="DQJhr5tr639LsQyuPQP4-18" value="Partner&#xa;Interconnect" style="sketch=0;html=1;verticalAlign=top;labelPosition=center;verticalLabelPosition=bottom;align=center;spacingTop=-6;fontSize=11;fontStyle=1;fontColor=#999999;shape=image;aspect=fixed;imageAspect=0;image=data:image/svg+xml,PHN2ZyB4bWxucz0iaHR0cDovL3d3dy53My5vcmcvMjAwMC9zdmciIHhtbG5zOnY9Imh0dHBzOi8vdmVjdGEuaW8vbmFubyIgd2lkdGg9IjIwIiBoZWlnaHQ9IjEzLjUxOTk5OTUwNDA4OTM1NSIgdmlld0JveD0iMCAtMi4wNjA1NzM0NTA4OTU1MTA2ZS0xNSAyMCAxMy41MTk5OTk1MDQwODkzNTUiPiYjeGE7CTxzdHlsZSB0eXBlPSJ0ZXh0L2NzcyI+JiN4YTsJLnN0MHtmaWxsOiM0Mjg1ZjQ7fSYjeGE7CS5zdDF7ZmlsbDojNjY5ZGY2O30mI3hhOwkuc3Qye2ZpbGw6I2FlY2JmYTt9JiN4YTsJPC9zdHlsZT4mI3hhOwk8cGF0aCBjbGFzcz0ic3QwIiBkPSJNOS4xOSAxLjYyaDEuNjJ2MTAuMjdIOS4xOXoiLz4mI3hhOwk8cGF0aCBjbGFzcz0ic3QxIiBkPSJNMCA1Ljk1aDIuN3YxLjYySDB6Ii8+JiN4YTsJPHJlY3QgY2xhc3M9InN0MCIgeD0iMi40MyIgeT0iMy41MiIgd2lkdGg9IjQuODYiIGhlaWdodD0iNi40OSIgcng9Ii4yNCIvPiYjeGE7CTxnIGNsYXNzPSJzdDEiPiYjeGE7CQk8cGF0aCBkPSJNOS4xOSAxLjYyaDEuNjJ2MTAuMjdIOS4xOXptOC4xMSA0LjMzSDIwdjEuNjJoLTIuN3oiLz4mI3hhOwkJPHBhdGggZD0iTTQuNTkgMTEuOXYxLjMzYS4yOS4yOSAwIDAgMCAuMjkuMjloMTAuMjRhLjI5LjI5IDAgMCAwIC4yOS0uMjloMFYxMS45ek0xNS4xMiAwSDQuODhhLjI5LjI5IDAgMCAwLS4yOS4yOWgwdjEuMzNoMTAuODJWLjI5YS4yOS4yOSAwIDAgMC0uMjktLjI5eiIvPiYjeGE7CTwvZz4mI3hhOwk8cmVjdCBjbGFzcz0ic3QwIiB4PSIxMi43IiB5PSIzLjUyIiB3aWR0aD0iNC44NiIgaGVpZ2h0PSI2LjQ5IiByeD0iLjI0Ii8+JiN4YTs8L3N2Zz4=;" vertex="1" parent="1">
          <mxGeometry x="599.5" y="791" width="42" height="29" as="geometry" />
        </mxCell>
        <mxCell id="DQJhr5tr639LsQyuPQP4-19" value="Partner&#xa;Interconnect" style="sketch=0;html=1;verticalAlign=top;labelPosition=center;verticalLabelPosition=bottom;align=center;spacingTop=-6;fontSize=11;fontStyle=1;fontColor=#999999;shape=image;aspect=fixed;imageAspect=0;image=data:image/svg+xml,PHN2ZyB4bWxucz0iaHR0cDovL3d3dy53My5vcmcvMjAwMC9zdmciIHhtbG5zOnY9Imh0dHBzOi8vdmVjdGEuaW8vbmFubyIgd2lkdGg9IjIwIiBoZWlnaHQ9IjEzLjUxOTk5OTUwNDA4OTM1NSIgdmlld0JveD0iMCAtMi4wNjA1NzM0NTA4OTU1MTA2ZS0xNSAyMCAxMy41MTk5OTk1MDQwODkzNTUiPiYjeGE7CTxzdHlsZSB0eXBlPSJ0ZXh0L2NzcyI+JiN4YTsJLnN0MHtmaWxsOiM0Mjg1ZjQ7fSYjeGE7CS5zdDF7ZmlsbDojNjY5ZGY2O30mI3hhOwkuc3Qye2ZpbGw6I2FlY2JmYTt9JiN4YTsJPC9zdHlsZT4mI3hhOwk8cGF0aCBjbGFzcz0ic3QwIiBkPSJNOS4xOSAxLjYyaDEuNjJ2MTAuMjdIOS4xOXoiLz4mI3hhOwk8cGF0aCBjbGFzcz0ic3QxIiBkPSJNMCA1Ljk1aDIuN3YxLjYySDB6Ii8+JiN4YTsJPHJlY3QgY2xhc3M9InN0MCIgeD0iMi40MyIgeT0iMy41MiIgd2lkdGg9IjQuODYiIGhlaWdodD0iNi40OSIgcng9Ii4yNCIvPiYjeGE7CTxnIGNsYXNzPSJzdDEiPiYjeGE7CQk8cGF0aCBkPSJNOS4xOSAxLjYyaDEuNjJ2MTAuMjdIOS4xOXptOC4xMSA0LjMzSDIwdjEuNjJoLTIuN3oiLz4mI3hhOwkJPHBhdGggZD0iTTQuNTkgMTEuOXYxLjMzYS4yOS4yOSAwIDAgMCAuMjkuMjloMTAuMjRhLjI5LjI5IDAgMCAwIC4yOS0uMjloMFYxMS45ek0xNS4xMiAwSDQuODhhLjI5LjI5IDAgMCAwLS4yOS4yOWgwdjEuMzNoMTAuODJWLjI5YS4yOS4yOSAwIDAgMC0uMjktLjI5eiIvPiYjeGE7CTwvZz4mI3hhOwk8cmVjdCBjbGFzcz0ic3QwIiB4PSIxMi43IiB5PSIzLjUyIiB3aWR0aD0iNC44NiIgaGVpZ2h0PSI2LjQ5IiByeD0iLjI0Ii8+JiN4YTs8L3N2Zz4=;" vertex="1" parent="1">
          <mxGeometry x="330" y="460" width="42" height="29" as="geometry" />
        </mxCell>
        <mxCell id="DQJhr5tr639LsQyuPQP4-20" value="Partner&#xa;Interconnect" style="sketch=0;html=1;verticalAlign=top;labelPosition=center;verticalLabelPosition=bottom;align=center;spacingTop=-6;fontSize=11;fontStyle=1;fontColor=#999999;shape=image;aspect=fixed;imageAspect=0;image=data:image/svg+xml,PHN2ZyB4bWxucz0iaHR0cDovL3d3dy53My5vcmcvMjAwMC9zdmciIHhtbG5zOnY9Imh0dHBzOi8vdmVjdGEuaW8vbmFubyIgd2lkdGg9IjIwIiBoZWlnaHQ9IjEzLjUxOTk5OTUwNDA4OTM1NSIgdmlld0JveD0iMCAtMi4wNjA1NzM0NTA4OTU1MTA2ZS0xNSAyMCAxMy41MTk5OTk1MDQwODkzNTUiPiYjeGE7CTxzdHlsZSB0eXBlPSJ0ZXh0L2NzcyI+JiN4YTsJLnN0MHtmaWxsOiM0Mjg1ZjQ7fSYjeGE7CS5zdDF7ZmlsbDojNjY5ZGY2O30mI3hhOwkuc3Qye2ZpbGw6I2FlY2JmYTt9JiN4YTsJPC9zdHlsZT4mI3hhOwk8cGF0aCBjbGFzcz0ic3QwIiBkPSJNOS4xOSAxLjYyaDEuNjJ2MTAuMjdIOS4xOXoiLz4mI3hhOwk8cGF0aCBjbGFzcz0ic3QxIiBkPSJNMCA1Ljk1aDIuN3YxLjYySDB6Ii8+JiN4YTsJPHJlY3QgY2xhc3M9InN0MCIgeD0iMi40MyIgeT0iMy41MiIgd2lkdGg9IjQuODYiIGhlaWdodD0iNi40OSIgcng9Ii4yNCIvPiYjeGE7CTxnIGNsYXNzPSJzdDEiPiYjeGE7CQk8cGF0aCBkPSJNOS4xOSAxLjYyaDEuNjJ2MTAuMjdIOS4xOXptOC4xMSA0LjMzSDIwdjEuNjJoLTIuN3oiLz4mI3hhOwkJPHBhdGggZD0iTTQuNTkgMTEuOXYxLjMzYS4yOS4yOSAwIDAgMCAuMjkuMjloMTAuMjRhLjI5LjI5IDAgMCAwIC4yOS0uMjloMFYxMS45ek0xNS4xMiAwSDQuODhhLjI5LjI5IDAgMCAwLS4yOS4yOWgwdjEuMzNoMTAuODJWLjI5YS4yOS4yOSAwIDAgMC0uMjktLjI5eiIvPiYjeGE7CTwvZz4mI3hhOwk8cmVjdCBjbGFzcz0ic3QwIiB4PSIxMi43IiB5PSIzLjUyIiB3aWR0aD0iNC44NiIgaGVpZ2h0PSI2LjQ5IiByeD0iLjI0Ii8+JiN4YTs8L3N2Zz4=;" vertex="1" parent="1">
          <mxGeometry x="599.5" y="460" width="42" height="29" as="geometry" />
        </mxCell>
        <mxCell id="DQJhr5tr639LsQyuPQP4-25" value="" style="endArrow=classic;html=1;rounded=0;entryX=0.5;entryY=0;entryDx=0;entryDy=0;exitX=0.5;exitY=1;exitDx=0;exitDy=0;" edge="1" parent="1" source="DQJhr5tr639LsQyuPQP4-19" target="qDtnTpvqVdNM_0jnaKKl-3">
          <mxGeometry width="50" height="50" relative="1" as="geometry">
            <mxPoint x="326" y="578" as="sourcePoint" />
            <mxPoint x="376" y="528" as="targetPoint" />
          </mxGeometry>
        </mxCell>
        <mxCell id="DQJhr5tr639LsQyuPQP4-26" value="" style="endArrow=classic;html=1;rounded=0;entryX=0.5;entryY=1;entryDx=0;entryDy=0;exitX=0.5;exitY=0;exitDx=0;exitDy=0;" edge="1" parent="1" source="DQJhr5tr639LsQyuPQP4-17" target="qDtnTpvqVdNM_0jnaKKl-3">
          <mxGeometry width="50" height="50" relative="1" as="geometry">
            <mxPoint x="322" y="756" as="sourcePoint" />
            <mxPoint x="372" y="706" as="targetPoint" />
          </mxGeometry>
        </mxCell>
        <mxCell id="DQJhr5tr639LsQyuPQP4-27" value="" style="endArrow=classic;html=1;rounded=0;exitX=0.5;exitY=1;exitDx=0;exitDy=0;" edge="1" parent="1" source="DQJhr5tr639LsQyuPQP4-20">
          <mxGeometry width="50" height="50" relative="1" as="geometry">
            <mxPoint x="485" y="581.75" as="sourcePoint" />
            <mxPoint x="350" y="560" as="targetPoint" />
            <Array as="points">
              <mxPoint x="621" y="560" />
            </Array>
          </mxGeometry>
        </mxCell>
        <mxCell id="DQJhr5tr639LsQyuPQP4-28" value="" style="endArrow=classic;html=1;rounded=0;exitX=0.5;exitY=0;exitDx=0;exitDy=0;" edge="1" parent="1" source="DQJhr5tr639LsQyuPQP4-18">
          <mxGeometry width="50" height="50" relative="1" as="geometry">
            <mxPoint x="468" y="770" as="sourcePoint" />
            <mxPoint x="350" y="730" as="targetPoint" />
            <Array as="points">
              <mxPoint x="621" y="730" />
            </Array>
          </mxGeometry>
        </mxCell>
        <mxCell id="DQJhr5tr639LsQyuPQP4-30" value="" style="endArrow=classic;startArrow=classic;html=1;rounded=0;exitX=0.52;exitY=0.957;exitDx=0;exitDy=0;exitPerimeter=0;entryX=1;entryY=0.5;entryDx=0;entryDy=0;" edge="1" parent="1" source="qDtnTpvqVdNM_0jnaKKl-1" target="qDtnTpvqVdNM_0jnaKKl-4">
          <mxGeometry width="50" height="50" relative="1" as="geometry">
            <mxPoint x="640" y="350" as="sourcePoint" />
            <mxPoint x="800" y="480" as="targetPoint" />
            <Array as="points">
              <mxPoint x="400" y="320" />
              <mxPoint x="800" y="320" />
              <mxPoint x="800" y="640" />
            </Array>
          </mxGeometry>
        </mxCell>
        <mxCell id="DQJhr5tr639LsQyuPQP4-31" value="Billy" style="text;html=1;align=center;verticalAlign=middle;whiteSpace=wrap;rounded=0;" vertex="1" parent="1">
          <mxGeometry x="321" y="850" width="60" height="30" as="geometry" />
        </mxCell>
        <mxCell id="DQJhr5tr639LsQyuPQP4-32" value="Bob" style="text;html=1;align=center;verticalAlign=middle;whiteSpace=wrap;rounded=0;" vertex="1" parent="1">
          <mxGeometry x="590.5" y="840" width="60" height="30" as="geometry" />
        </mxCell>
        <mxCell id="DQJhr5tr639LsQyuPQP4-33" value="John" style="text;html=1;align=center;verticalAlign=middle;whiteSpace=wrap;rounded=0;" vertex="1" parent="1">
          <mxGeometry x="321" y="430" width="60" height="30" as="geometry" />
        </mxCell>
        <mxCell id="DQJhr5tr639LsQyuPQP4-34" value="Doe" style="text;html=1;align=center;verticalAlign=middle;whiteSpace=wrap;rounded=0;" vertex="1" parent="1">
          <mxGeometry x="590.5" y="430" width="60" height="30" as="geometry" />
        </mxCell>
      </root>
    </mxGraphModel>
  </diagram>
</mxfile>
